<svg width="161" height="32" viewBox="0 0 161 32" fill="none" xmlns="http://www.w3.org/2000/svg">
<path d="M18.6575 19.9075C19.3862 21.7275 20.4375 22 21 22C21.5625 22 22.6138 21.7275 23.3425 19.9075C23.7663 18.8475 24 17.46 24 16C24 14.54 23.7663 13.1525 23.3425 12.0925C22.6138 10.2725 21.5625 10 21 10C20.4375 10 19.3862 10.2725 18.6575 12.0925C18.2337 13.1525 18 14.54 18 16C18 17.46 18.2337 18.8475 18.6575 19.9075ZM21 12.025C21.3275 12.2825 22 13.65 22 16C22 18.35 21.3275 19.7175 21 19.975C20.6725 19.7175 20 18.35 20 16C20 13.65 20.6725 12.2825 21 12.025ZM29 27H24.5513C26.64 24.7162 28 20.6838 28 16C28 8.71 24.7062 3 20.5 3H11.5C7.29375 3 4 8.71 4 16C4 23.29 7.29375 29 11.5 29H29C29.2652 29 29.5196 28.8946 29.7071 28.7071C29.8946 28.5196 30 28.2652 30 28C30 27.7348 29.8946 27.4804 29.7071 27.2929C29.5196 27.1054 29.2652 27 29 27ZM24.2175 7.99125C25.3663 10.1137 26 12.9587 26 16C26 19.0413 25.3663 21.8863 24.2175 24.0088C23.1725 25.9375 21.8525 27 20.5 27C19.1475 27 17.8275 25.9375 16.7825 24.0088C15.6337 21.8863 15 19.0413 15 16C15 12.9587 15.6337 10.1137 16.7825 7.99125C17.8275 6.0625 19.1475 5 20.5 5C21.8525 5 23.1725 6.0625 24.2175 7.99125ZM6 16C6 15.6875 6.00875 15.375 6.02125 15.07L10 12.2288L13.0538 14.41C13.0188 14.93 13 15.4613 13 16C12.9968 17.4048 13.1253 18.8067 13.3837 20.1875L10.5813 18.1875C10.4116 18.0664 10.2084 18.0012 10 18.0012C9.79157 18.0012 9.58835 18.0664 9.41875 18.1875L6.45125 20.3125C6.14596 18.8954 5.99467 17.4496 6 16ZM7.7825 7.99125C8.8275 6.0625 10.1475 5 11.5 5H16.4487C14.9612 6.625 13.8438 9.14 13.3237 12.145L10.5813 10.1862C10.4116 10.0651 10.2084 9.99998 10 9.99998C9.79157 9.99998 9.58835 10.0651 9.41875 10.1862L6.31125 12.4062C6.60625 10.75 7.10375 9.25 7.7825 7.99125ZM7.7825 24.0088C7.49484 23.4725 7.24668 22.9161 7.04 22.3438L10 20.2288L14.2425 23.2588C14.8175 24.7588 15.5675 26.0362 16.4487 27H11.5C10.1475 27 8.8275 25.9375 7.7825 24.0088Z" fill="#E66D10"/>
<path d="M42.9688 22.9999L40 12.0908H43.0611L44.7514 19.4204H44.8509L46.6122 12.0908H49.6165L51.4063 19.3777H51.4986L53.1605 12.0908H56.2145L53.2529 22.9999H50.0497L48.1747 16.1391H48.0398L46.1648 22.9999H42.9688ZM60.8541 16.6931V22.9999H57.8285V8.45446H60.7688V14.0155H60.8967C61.1429 13.3716 61.5406 12.8673 62.0899 12.5027C62.6391 12.1334 63.328 11.9488 64.1566 11.9488C64.9142 11.9488 65.5747 12.1145 66.1382 12.4459C66.7063 12.7726 67.1467 13.2437 67.4592 13.8593C67.7764 14.4701 67.9327 15.2016 67.9279 16.0539V22.9999H64.9024V16.5937C64.9071 15.9213 64.7366 15.3981 64.391 15.024C64.0501 14.65 63.5719 14.463 62.9563 14.463C62.5444 14.463 62.1798 14.5506 61.8626 14.7258C61.5501 14.9009 61.3039 15.1566 61.124 15.4928C60.9488 15.8242 60.8588 16.2243 60.8541 16.6931ZM75.2806 23.213C74.1584 23.213 73.1925 22.9857 72.3828 22.5311C71.5779 22.0719 70.9576 21.4232 70.522 20.5851C70.0864 19.7423 69.8686 18.7456 69.8686 17.5951C69.8686 16.4729 70.0864 15.4881 70.522 14.6405C70.9576 13.793 71.5708 13.1325 72.3615 12.659C73.157 12.1855 74.0898 11.9488 75.1598 11.9488C75.8795 11.9488 76.5495 12.0648 77.1698 12.2968C77.7948 12.524 78.3393 12.8673 78.8033 13.3266C79.272 13.7859 79.6366 14.3635 79.897 15.0596C80.1575 15.7508 80.2877 16.5605 80.2877 17.4885V18.3195H71.076V16.4445H77.4397C77.4397 16.0089 77.345 15.623 77.1556 15.2868C76.9662 14.9507 76.7034 14.6879 76.3672 14.4985C76.0358 14.3044 75.6499 14.2073 75.2095 14.2073C74.7503 14.2073 74.3431 14.3138 73.988 14.5269C73.6376 14.7352 73.363 15.0169 73.1641 15.3721C72.9652 15.7224 72.8634 16.1131 72.8587 16.5439V18.3266C72.8587 18.8664 72.9581 19.3328 73.157 19.7258C73.3606 20.1187 73.647 20.4218 74.0164 20.6348C74.3857 20.8479 74.8237 20.9544 75.3303 20.9544C75.6665 20.9544 75.9742 20.9071 76.2536 20.8124C76.5329 20.7177 76.772 20.5757 76.9709 20.3863C77.1698 20.1969 77.3213 19.9649 77.4255 19.6902L80.2237 19.8749C80.0817 20.5472 79.7905 21.1344 79.3502 21.6363C78.9146 22.1334 78.3511 22.5217 77.6598 22.801C76.9733 23.0757 76.1802 23.213 75.2806 23.213ZM87.2337 23.213C86.1115 23.213 85.1456 22.9857 84.336 22.5311C83.531 22.0719 82.9108 21.4232 82.4752 20.5851C82.0396 19.7423 81.8218 18.7456 81.8218 17.5951C81.8218 16.4729 82.0396 15.4881 82.4752 14.6405C82.9108 13.793 83.5239 13.1325 84.3147 12.659C85.1101 12.1855 86.0429 11.9488 87.113 11.9488C87.8326 11.9488 88.5026 12.0648 89.1229 12.2968C89.7479 12.524 90.2924 12.8673 90.7564 13.3266C91.2252 13.7859 91.5898 14.3635 91.8502 15.0596C92.1106 15.7508 92.2408 16.5605 92.2408 17.4885V18.3195H83.0291V16.4445H89.3928C89.3928 16.0089 89.2981 15.623 89.1087 15.2868C88.9193 14.9507 88.6565 14.6879 88.3203 14.4985C87.9889 14.3044 87.603 14.2073 87.1627 14.2073C86.7034 14.2073 86.2962 14.3138 85.9411 14.5269C85.5907 14.7352 85.3161 15.0169 85.1172 15.3721C84.9183 15.7224 84.8165 16.1131 84.8118 16.5439V18.3266C84.8118 18.8664 84.9112 19.3328 85.1101 19.7258C85.3137 20.1187 85.6002 20.4218 85.9695 20.6348C86.3388 20.8479 86.7768 20.9544 87.2834 20.9544C87.6196 20.9544 87.9273 20.9071 88.2067 20.8124C88.4861 20.7177 88.7252 20.5757 88.924 20.3863C89.1229 20.1969 89.2744 19.9649 89.3786 19.6902L92.1769 19.8749C92.0348 20.5472 91.7436 21.1344 91.3033 21.6363C90.8677 22.1334 90.3042 22.5217 89.613 22.801C88.9264 23.0757 88.1333 23.213 87.2337 23.213ZM97.2404 8.45446V22.9999H94.2152V8.45446H97.2404ZM104.124 23.213C103.12 23.213 102.254 23.033 101.525 22.6732C100.796 22.3133 100.235 21.8257 99.8424 21.2101C99.4534 20.5899 99.2594 19.8986 99.2594 19.1363C99.2594 18.5681 99.3734 18.0638 99.6004 17.6235C99.8274 17.1831 100.145 16.7783 100.552 16.409C100.959 16.0349 101.433 15.6633 101.972 15.2939L104.792 13.4402C105.156 13.2082 105.424 12.9644 105.594 12.7087C105.765 12.4483 105.85 12.1666 105.85 11.8635C105.85 11.5747 105.734 11.3072 105.502 11.061C105.27 10.8148 104.941 10.694 104.515 10.6988C104.231 10.6988 103.985 10.7627 103.776 10.8905C103.568 11.0136 103.405 11.177 103.286 11.3806C103.173 11.5794 103.116 11.802 103.116 12.0482C103.116 12.3512 103.201 12.659 103.371 12.9715C103.542 13.284 103.769 13.6154 104.053 13.9658C104.337 14.3115 104.647 14.6855 104.984 15.088L111.88 22.9999H108.727L102.974 16.5937C102.595 16.1628 102.216 15.713 101.837 15.2442C101.463 14.7707 101.151 14.2688 100.9 13.7385C100.649 13.2035 100.523 12.6235 100.523 11.9985C100.523 11.293 100.687 10.6585 101.013 10.0951C101.345 9.53163 101.809 9.08657 102.406 8.75986C103.002 8.42842 103.698 8.2627 104.494 8.2627C105.27 8.2627 105.94 8.42131 106.504 8.73855C107.072 9.05105 107.507 9.46771 107.81 9.98855C108.118 10.5046 108.272 11.0728 108.272 11.6931C108.272 12.3796 108.102 13.0023 107.761 13.561C107.424 14.115 106.951 14.6121 106.34 15.0525L103.371 17.1902C102.969 17.4838 102.671 17.7845 102.477 18.0922C102.287 18.3953 102.192 18.6865 102.192 18.9658C102.192 19.3115 102.278 19.6216 102.448 19.8962C102.619 20.1708 102.86 20.3886 103.173 20.5496C103.485 20.7059 103.852 20.784 104.273 20.784C104.785 20.784 105.289 20.668 105.786 20.436C106.288 20.1992 106.743 19.8654 107.15 19.4346C107.562 18.999 107.891 18.4829 108.137 17.8863C108.383 17.2897 108.506 16.6292 108.506 15.9047H111.013C111.013 16.7949 110.916 17.5974 110.722 18.3124C110.528 19.0226 110.258 19.6429 109.913 20.1732C109.567 20.6988 109.172 21.1296 108.727 21.4658C108.584 21.5558 108.447 21.641 108.315 21.7215C108.182 21.802 108.045 21.8872 107.903 21.9772C107.363 22.4128 106.759 22.7276 106.092 22.9218C105.429 23.1159 104.773 23.213 104.124 23.213ZM113.141 22.9999V12.0908H116.074V13.9942H116.187C116.386 13.3171 116.72 12.8058 117.189 12.4601C117.658 12.1097 118.197 11.9346 118.808 11.9346C118.96 11.9346 119.123 11.944 119.298 11.963C119.473 11.9819 119.627 12.0079 119.76 12.0411V14.7258C119.618 14.6831 119.421 14.6453 119.17 14.6121C118.919 14.579 118.69 14.5624 118.482 14.5624C118.036 14.5624 117.639 14.6595 117.288 14.8536C116.943 15.043 116.668 15.3081 116.464 15.649C116.266 15.99 116.166 16.3829 116.166 16.828V22.9999H113.141ZM125.745 23.213C124.642 23.213 123.688 22.9786 122.883 22.5098C122.083 22.0364 121.465 21.3782 121.029 20.5354C120.594 19.6879 120.376 18.7054 120.376 17.588C120.376 16.4611 120.594 15.4762 121.029 14.6334C121.465 13.7859 122.083 13.1277 122.883 12.659C123.688 12.1855 124.642 11.9488 125.745 11.9488C126.849 11.9488 127.8 12.1855 128.6 12.659C129.405 13.1277 130.026 13.7859 130.461 14.6334C130.897 15.4762 131.115 16.4611 131.115 17.588C131.115 18.7054 130.897 19.6879 130.461 20.5354C130.026 21.3782 129.405 22.0364 128.6 22.5098C127.8 22.9786 126.849 23.213 125.745 23.213ZM125.76 20.8692C126.261 20.8692 126.68 20.7272 127.017 20.4431C127.353 20.1543 127.606 19.7613 127.777 19.2641C127.952 18.7669 128.039 18.2011 128.039 17.5667C128.039 16.9322 127.952 16.3664 127.777 15.8692C127.606 15.3721 127.353 14.9791 127.017 14.6902C126.68 14.4014 126.261 14.257 125.76 14.257C125.253 14.257 124.827 14.4014 124.481 14.6902C124.14 14.9791 123.882 15.3721 123.707 15.8692C123.537 16.3664 123.451 16.9322 123.451 17.5667C123.451 18.2011 123.537 18.7669 123.707 19.2641C123.882 19.7613 124.14 20.1543 124.481 20.4431C124.827 20.7272 125.253 20.8692 125.76 20.8692ZM136.193 23.2059C135.497 23.2059 134.877 23.0851 134.332 22.8437C133.788 22.5974 133.357 22.2352 133.039 21.757C132.727 21.274 132.571 20.6727 132.571 19.953C132.571 19.347 132.682 18.838 132.904 18.426C133.127 18.0141 133.43 17.6827 133.814 17.4317C134.197 17.1808 134.633 16.9914 135.12 16.8635C135.613 16.7357 136.129 16.6457 136.669 16.5937C137.303 16.5274 137.814 16.4658 138.203 16.409C138.591 16.3474 138.873 16.2575 139.048 16.1391C139.223 16.0207 139.311 15.8455 139.311 15.6135V15.5709C139.311 15.1211 139.169 14.7731 138.885 14.5269C138.605 14.2807 138.207 14.1576 137.691 14.1576C137.147 14.1576 136.714 14.2783 136.392 14.5198C136.07 14.7565 135.857 15.0548 135.752 15.4147L132.954 15.1874C133.096 14.5245 133.376 13.9516 133.792 13.4687C134.209 12.981 134.746 12.6069 135.404 12.3465C136.067 12.0813 136.834 11.9488 137.706 11.9488C138.312 11.9488 138.892 12.0198 139.446 12.1618C140.004 12.3039 140.499 12.524 140.93 12.8223C141.366 13.1206 141.709 13.5042 141.96 13.9729C142.211 14.4369 142.336 14.9933 142.336 15.6419V22.9999H139.467V21.4871H139.382C139.207 21.828 138.972 22.1287 138.679 22.3891C138.385 22.6448 138.032 22.846 137.62 22.9928C137.208 23.1348 136.733 23.2059 136.193 23.2059ZM137.059 21.1178C137.504 21.1178 137.897 21.0302 138.238 20.855C138.579 20.6751 138.847 20.4336 139.041 20.1306C139.235 19.8276 139.332 19.4843 139.332 19.1008V17.9431C139.237 18.0046 139.107 18.0615 138.941 18.1135C138.78 18.1609 138.598 18.2059 138.395 18.2485C138.191 18.2864 137.987 18.3219 137.784 18.355C137.58 18.3834 137.395 18.4095 137.23 18.4331C136.875 18.4852 136.564 18.5681 136.299 18.6817C136.034 18.7954 135.828 18.9492 135.681 19.1434C135.535 19.3328 135.461 19.5695 135.461 19.8536C135.461 20.2655 135.61 20.5804 135.909 20.7982C136.212 21.0113 136.595 21.1178 137.059 21.1178ZM148.703 23.1775C147.875 23.1775 147.124 22.9644 146.452 22.5383C145.784 22.1074 145.254 21.4753 144.861 20.6419C144.473 19.8039 144.279 18.7764 144.279 17.5596C144.279 16.3096 144.48 15.2703 144.882 14.4417C145.285 13.6083 145.82 12.9857 146.488 12.5738C147.16 12.1571 147.896 11.9488 148.696 11.9488C149.307 11.9488 149.816 12.0529 150.223 12.2613C150.635 12.4649 150.967 12.7205 151.218 13.0283C151.473 13.3313 151.667 13.6296 151.8 13.9232H151.892V8.45446H154.911V22.9999H151.928V21.2527H151.8C151.658 21.5558 151.457 21.8564 151.196 22.1547C150.941 22.4483 150.607 22.6921 150.195 22.8863C149.788 23.0804 149.291 23.1775 148.703 23.1775ZM149.662 20.7698C150.15 20.7698 150.562 20.6372 150.898 20.3721C151.239 20.1022 151.499 19.7258 151.679 19.2428C151.864 18.7598 151.956 18.194 151.956 17.5454C151.956 16.8967 151.866 16.3332 151.686 15.855C151.506 15.3768 151.246 15.0075 150.905 14.7471C150.564 14.4866 150.15 14.3564 149.662 14.3564C149.165 14.3564 148.746 14.4914 148.405 14.7613C148.064 15.0311 147.806 15.4052 147.631 15.8834C147.456 16.3616 147.368 16.9156 147.368 17.5454C147.368 18.1798 147.456 18.7409 147.631 19.2286C147.811 19.7115 148.069 20.0903 148.405 20.365C148.746 20.6348 149.165 20.7698 149.662 20.7698Z" fill="#E66D10"/>
</svg>
