<svg width="1023" height="785" viewBox="0 0 1023 785" fill="none" xmlns="http://www.w3.org/2000/svg">
<path d="M787.058 716.253V643.913C787.058 643.913 815.249 695.199 787.058 716.253Z" fill="#F1F1F1"/>
<path d="M174.802 115.452C169.322 122.102 167.212 131.452 164.852 140.242C145.852 211.082 99.0321 268.062 45.7121 308.762C23.1321 326.002 -4.35794 349.122 0.582064 380.032C3.24206 396.632 14.9121 408.852 23.5821 422.372C41.7721 450.682 47.6721 489.162 39.0021 523.052C29.1421 561.612 1.58206 597.592 10.1121 636.582C15.3721 660.582 33.2321 677.662 50.4021 692.342C77.1887 715.229 104.829 736.669 133.322 756.662C152.422 770.062 172.742 783.102 195.002 784.802C214.602 786.302 233.802 778.852 252.412 771.502C268.672 765.072 285.342 758.382 298.472 745.502C307.042 737.092 313.872 726.242 323.392 719.362C345.752 703.202 374.472 713.442 400.112 720.362C460.612 736.602 525.362 730.672 582.932 703.622C671.242 662.122 738.552 574.972 824.932 528.212C862.072 508.102 902.472 495.622 936.862 469.722C956.237 454.976 972.887 436.958 986.062 416.482C1012.06 376.372 1026.12 325.232 1022.06 275.172C1018 225.112 995.252 176.872 959.522 148.612C921.272 118.362 872.962 112.712 829.442 94.5523C784.522 75.7723 744.542 43.5123 700.052 23.4023C664.029 7.15578 624.825 -0.817973 585.318 0.0662754C545.81 0.950523 507.002 10.6703 471.742 28.5123C423.292 53.0123 374.202 110.172 320.242 114.512C281.802 117.512 204.822 79.0323 174.802 115.452Z" fill="white" fill-opacity="0.1"/>
<path d="M788.799 716.241L735.509 667.319C735.509 667.319 792.354 681.235 788.799 716.241Z" fill="#F1F1F1"/>
<path d="M224.188 66H96.729L33 176.382L96.729 286.765H224.188L287.917 176.382L224.188 66Z" fill="#CBCBCB"/>
<path d="M103.883 274.375H217.035L273.611 176.382L217.035 78.3899H103.883L47.3065 176.382L103.883 274.375Z" fill="white"/>
<path d="M102.516 152.37C105.399 152.37 107.736 150.033 107.736 147.15C107.736 144.267 105.399 141.93 102.516 141.93C99.6329 141.93 97.2958 144.267 97.2958 147.15C97.2958 150.033 99.6329 152.37 102.516 152.37Z" fill="#CBCBCB"/>
<path d="M102.516 181.602C105.399 181.602 107.736 179.265 107.736 176.382C107.736 173.499 105.399 171.162 102.516 171.162C99.6329 171.162 97.2958 173.499 97.2958 176.382C97.2958 179.265 99.6329 181.602 102.516 181.602Z" fill="#CBCBCB"/>
<path d="M102.516 210.835C105.399 210.835 107.736 208.498 107.736 205.615C107.736 202.732 105.399 200.395 102.516 200.395C99.6329 200.395 97.2958 202.732 97.2958 205.615C97.2958 208.498 99.6329 210.835 102.516 210.835Z" fill="#CBCBCB"/>
<path d="M223.621 142.974H124.44V151.326H223.621V142.974Z" fill="#CBCBCB"/>
<path d="M223.621 172.206H124.44V180.558H223.621V172.206Z" fill="#CBCBCB"/>
<path d="M223.621 201.439H124.44V209.791H223.621V201.439Z" fill="#CBCBCB"/>
<path d="M855.386 66H727.927L664.198 176.382L727.927 286.765H855.386L919.115 176.382L855.386 66Z" fill="#CBCBCB"/>
<path d="M735.08 274.375H848.232L904.808 176.382L848.232 78.3899H735.08L678.504 176.382L735.08 274.375Z" fill="white"/>
<path d="M733.714 152.37C736.597 152.37 738.934 150.033 738.934 147.15C738.934 144.267 736.597 141.93 733.714 141.93C730.831 141.93 728.494 144.267 728.494 147.15C728.494 150.033 730.831 152.37 733.714 152.37Z" fill="#CBCBCB"/>
<path d="M733.714 181.602C736.597 181.602 738.934 179.265 738.934 176.382C738.934 173.499 736.597 171.162 733.714 171.162C730.831 171.162 728.494 173.499 728.494 176.382C728.494 179.265 730.831 181.602 733.714 181.602Z" fill="#CBCBCB"/>
<path d="M733.714 210.835C736.597 210.835 738.934 208.498 738.934 205.615C738.934 202.732 736.597 200.395 733.714 200.395C730.831 200.395 728.494 202.732 728.494 205.615C728.494 208.498 730.831 210.835 733.714 210.835Z" fill="#CBCBCB"/>
<path d="M854.819 142.974H755.638V151.326H854.819V142.974Z" fill="#CBCBCB"/>
<path d="M854.819 172.206H755.638V180.558H854.819V172.206Z" fill="#CBCBCB"/>
<path d="M854.819 201.439H755.638V209.791H854.819V201.439Z" fill="#CBCBCB"/>
<path d="M539.167 67.072H412.946L349.836 176.382L412.946 285.693H539.167L602.279 176.382L539.167 67.072Z" fill="#FFB900"/>
<path d="M420.031 273.423H532.084L588.11 176.382L532.084 79.3416H420.031L364.004 176.382L420.031 273.423Z" fill="white"/>
<path d="M418.677 152.603C421.532 152.603 423.847 150.289 423.847 147.434C423.847 144.579 421.532 142.265 418.677 142.265C415.822 142.265 413.508 144.579 413.508 147.434C413.508 150.289 415.822 152.603 418.677 152.603Z" fill="#FFB900"/>
<path d="M418.677 181.552C421.532 181.552 423.847 179.237 423.847 176.382C423.847 173.527 421.532 171.213 418.677 171.213C415.822 171.213 413.508 173.527 413.508 176.382C413.508 179.237 415.822 181.552 418.677 181.552Z" fill="#FFB900"/>
<path d="M418.677 210.5C421.532 210.5 423.847 208.186 423.847 205.331C423.847 202.476 421.532 200.161 418.677 200.161C415.822 200.161 413.508 202.476 413.508 205.331C413.508 208.186 415.822 210.5 418.677 210.5Z" fill="#FFB900"/>
<path d="M538.607 143.298H440.389V151.569H538.607V143.298Z" fill="#FFB900"/>
<path d="M538.607 172.247H440.389V180.518H538.607V172.247Z" fill="#FFB900"/>
<path d="M538.607 201.195H440.389V209.466H538.607V201.195Z" fill="#FFB900"/>
<path d="M583.665 705.737L571.405 705.736L565.573 658.448L583.667 658.449L583.665 705.737Z" fill="#9F616A"/>
<path d="M586.792 717.621L547.261 717.619V717.119C547.261 713.039 548.882 709.125 551.768 706.24C554.653 703.355 558.567 701.733 562.647 701.733L586.792 701.734L586.792 717.621Z" fill="#2F2E41"/>
<path d="M697.665 705.737L685.405 705.736L679.573 658.448L697.667 658.449L697.665 705.737Z" fill="#9F616A"/>
<path d="M700.792 717.621L661.261 717.619V717.119C661.261 713.039 662.882 709.125 665.768 706.24C668.653 703.355 672.567 701.733 676.647 701.733L700.792 701.734L700.792 717.621Z" fill="#2F2E41"/>
<path d="M578.778 465.762C578.778 465.762 568.488 493.693 569.958 505.454C571.428 517.215 559.667 599.539 561.137 606.89C562.607 614.24 559.667 650.992 561.137 656.872C562.608 662.753 557.011 669.776 559.952 675.657C562.892 681.537 567.018 693.624 567.018 693.624L586.129 692.154L589.069 675.983C589.069 675.983 597.889 674.513 596.419 665.693C594.949 656.872 603.77 598.069 603.77 598.069L628.761 515.745L664.043 590.719C664.043 590.719 665.513 643.641 669.923 649.522C674.333 655.402 665.513 671.573 669.923 677.453C674.333 683.334 678.744 693.624 678.744 693.624H700.795V681.864C700.795 681.864 714.026 674.513 700.795 652.462L691.855 520.035L683.034 459.762L578.778 465.762Z" fill="#FFB900"/>
<path d="M633.581 280.913C648.745 280.913 661.038 268.62 661.038 253.456C661.038 238.292 648.745 225.998 633.581 225.998C618.416 225.998 606.123 238.292 606.123 253.456C606.123 268.62 618.416 280.913 633.581 280.913Z" fill="#A0616A"/>
<path d="M610.215 251.562C612.152 256.512 614.09 261.462 616.027 266.412C618.409 272.498 621.137 279.009 626.72 282.405C633.613 286.598 642.819 284.553 649.488 280.011C655.485 275.926 660.089 270.103 662.681 263.324C665.272 256.546 665.728 249.137 663.986 242.092C662.243 235.048 658.387 228.705 652.935 223.916C647.483 219.127 640.696 216.121 633.485 215.302L633.209 220.272L627.11 215.16C626.659 215.934 626.038 216.596 625.295 217.095C624.551 217.595 623.704 217.92 622.817 218.045C621.93 218.171 621.026 218.094 620.173 217.82C619.32 217.546 618.54 217.082 617.892 216.463C619.495 219.785 617.645 223.835 614.975 226.379C611.694 229.505 602.311 233.261 602.701 238.848C602.96 242.576 608.702 247.698 610.215 251.562Z" fill="#2F2E41"/>
<path d="M709.162 506.378C710.108 504.966 710.733 503.364 710.993 501.684C711.253 500.005 711.142 498.289 710.667 496.657C710.192 495.025 709.365 493.517 708.244 492.239C707.123 490.961 705.736 489.945 704.18 489.261L704.728 462.699L688.668 458.429L688.42 495.951C687.445 498.641 687.491 501.595 688.548 504.254C689.606 506.913 691.602 509.092 694.159 510.377C696.716 511.662 699.655 511.965 702.42 511.228C705.185 510.491 707.584 508.766 709.162 506.378Z" fill="#9F616A"/>
<path d="M564.173 507.951C565.477 506.862 566.527 505.499 567.249 503.96C567.97 502.421 568.345 500.743 568.347 499.043C568.349 497.343 567.979 495.664 567.262 494.123C566.545 492.582 565.499 491.217 564.197 490.124L572.181 464.784L557.966 456.177L547.193 492.119C545.502 494.428 544.716 497.276 544.985 500.125C545.254 502.974 546.558 505.626 548.651 507.577C550.744 509.528 553.48 510.644 556.341 510.713C559.202 510.782 561.988 509.799 564.173 507.951Z" fill="#9F616A"/>
<path d="M590.145 309.704H581.87C581.87 309.704 568.867 317.979 568.867 329.799C568.867 341.62 549.954 479.923 549.954 479.923L570.05 483.469L587.781 386.539L600.784 360.533L590.145 309.704Z" fill="#3F3D56"/>
<path d="M653.977 297.883C653.977 297.883 632.7 287.245 612.604 294.337C592.509 301.43 581.87 309.704 581.87 309.704L594.873 378.265L577.142 470.466C577.142 470.466 668.162 463.374 676.436 470.466C684.711 477.559 684.711 462.192 684.711 462.192L677.618 374.718L690.621 319.161L653.977 297.883Z" fill="#3F3D56"/>
<path d="M668.162 319.161H690.622C690.622 319.161 697.714 326.253 701.26 342.802C704.806 359.351 708.353 424.365 708.353 424.365L705.989 483.469H688.257L685.893 406.634L674.073 356.987L668.162 319.161Z" fill="#3F3D56"/>
<path d="M837.841 718.382H456.841C456.576 718.382 456.321 718.277 456.134 718.09C455.946 717.902 455.841 717.648 455.841 717.382C455.841 717.117 455.946 716.863 456.134 716.675C456.321 716.488 456.576 716.382 456.841 716.382H837.841C838.106 716.382 838.361 716.488 838.548 716.675C838.736 716.863 838.841 717.117 838.841 717.382C838.841 717.648 838.736 717.902 838.548 718.09C838.361 718.277 838.106 718.382 837.841 718.382Z" fill="#CBCBCB"/>
</svg>
